<svg width="120" height="120" viewBox="0 0 120 120" fill="none" xmlns="http://www.w3.org/2000/svg">
  <defs>
    <linearGradient id="logoGradient" x1="0%" y1="0%" x2="100%" y2="100%">
      <stop offset="0%" style="stop-color:#00FFC2;stop-opacity:1" />
      <stop offset="100%" style="stop-color:#7F5AF0;stop-opacity:1" />
    </linearGradient>
  </defs>
  
  <!-- Hexagonal H shape -->
  <path d="M30 25 L30 50 L50 50 L50 25 L70 25 L70 50 L90 50 L90 25 L90 45 L90 70 L90 95 L70 95 L70 70 L50 70 L50 95 L30 95 L30 70 L30 45 L30 25 Z" fill="url(#logoGradient)" stroke="url(#logoGradient)" stroke-width="2"/>
  
  <!-- Lightning bolt -->
  <path d="M55 35 L65 35 L55 55 L65 55 L55 75 L45 55 L55 55 L45 35 L55 35 Z" fill="#0F0F1B" stroke="#0F0F1B" stroke-width="1"/>
  
  <!-- Hexagonal border -->
  <path d="M25 35 L35 25 L85 25 L95 35 L95 85 L85 95 L35 95 L25 85 L25 35 Z" fill="none" stroke="url(#logoGradient)" stroke-width="2"/>
</svg>
